<svg width="100%" min-height="0" viewBox="0 0 75 83" fill="none"
    xmlns="http://www.w3.org/2000/svg">
    <g id="dfchyield" clip-path="url(#clip0_1_2)">
        <path id="hexa" d="M2.11343 21.62L1.60001 21.906V22.4937V60.019V60.5996L2.10423 60.8874L37.1042 80.8684L37.6 81.1515L38.0958 80.8684L73.0958 60.8874L73.6 60.5996V60.019V22.4937V21.906L73.0866 21.62L38.0866 2.12635L37.6 1.85535L37.1134 2.12635L2.11343 21.62Z" fill="#FFFCFC" stroke="#CF0A2C" stroke-width="2" />
        <g id="center_2">
            <path id="Vector_2" d="M39.3989 38.1282C39.3579 38.1282 39.2756 38.0872 39.2346 38.0872C40.468 37.1005 41.2901 35.3738 41.2901 33.8528C41.2901 31.5507 39.4402 29.7007 37.138 29.7007C34.8768 29.7007 33.0269 31.5506 33.0269 33.8528C33.0269 35.3738 33.8491 37.1004 35.0825 38.0872C35.0415 38.0872 34.9592 38.0872 34.9182 38.1282C32.4104 39.0737 30.7248 41.4995 30.6837 44.1715V45.076C30.6837 45.4049 30.9304 45.6515 31.2593 45.6515H42.9759C43.3048 45.6515 43.5514 45.4049 43.5514 45.076V44.1715C43.6334 41.4992 41.9478 39.0737 39.3988 38.1282H39.3989ZM34.219 33.8526C34.219 32.2083 35.5347 30.8926 37.179 30.8926C38.8233 30.8926 40.139 32.2083 40.139 33.8526C40.139 35.5382 38.7413 37.717 37.179 37.717C35.6167 37.717 34.219 35.5382 34.219 33.8526ZM37.179 38.8681C37.6722 38.8681 38.1657 38.7448 38.618 38.4981C38.0015 39.2793 36.8504 39.4436 36.0692 38.7861C35.9459 38.7038 35.8636 38.5804 35.7813 38.4981C36.1923 38.7448 36.6858 38.8681 37.179 38.8681ZM42.4822 44.5005H31.9167V44.1716C31.9167 42.116 33.1087 40.2248 35 39.3616C36.11 40.595 38.001 40.6773 39.1934 39.5672L39.399 39.3616C41.2489 40.2251 42.4412 42.116 42.4823 44.1716L42.4822 44.5005Z" fill="#CF0A2C" />
        </g>
        <g id="center_1">
            <path id="Vector_3" d="M53.7465 36.731C53.6232 36.361 53.3353 36.1144 52.9653 36.0731L51.7732 35.9088C50.8688 28.6321 44.6611 23 37.1789 23C29.6556 23 23.4479 28.6734 22.6257 35.991L21.4336 36.1553C20.8991 36.2376 20.5292 36.7309 20.6115 37.2654C20.6525 37.471 20.7348 37.6766 20.8994 37.7999L21.9682 38.8277L21.7216 40.3077C21.6393 40.8422 21.9682 41.3355 22.5027 41.4178C22.6671 41.4588 22.8317 41.4178 22.996 41.3767C23.9827 45.1179 26.3672 48.3246 29.6971 50.2978V59.3833C29.6971 59.7122 29.9437 59.9588 30.2727 59.9588C30.355 59.9588 30.396 59.9588 30.4783 59.9178L37.1788 57.4098L43.921 59.9586C44.2089 60.0819 44.5788 59.9176 44.6608 59.6296C44.7018 59.5473 44.7019 59.5063 44.7019 59.424L44.7021 50.2974C48.032 48.2829 50.4575 45.0763 51.4033 41.2942C51.8965 41.4585 52.4721 41.2119 52.6367 40.6776C52.6777 40.5133 52.719 40.3487 52.6777 40.1844L52.4311 38.7044L53.4999 37.6766C53.7465 37.471 53.8288 37.1009 53.7465 36.731ZM51.5267 38.0053C51.28 38.2109 51.1977 38.5398 51.2387 38.8688L51.4443 40.0609L50.3755 39.4853C50.0876 39.321 49.759 39.321 49.4711 39.4853L48.4023 40.0609L48.6079 38.8688C48.6489 38.5399 48.5669 38.2522 48.32 38.0053L47.4565 37.1832L48.6486 37.0189C48.9775 36.9778 49.2241 36.7722 49.3884 36.4843L49.923 35.4155L50.4575 36.4843C50.5808 36.7722 50.8687 36.9776 51.1973 37.0189L52.3894 37.1832L51.5267 38.0053ZM37.3845 56.2174C37.2612 56.1764 37.0966 56.1764 36.9733 56.2174L30.8067 58.5609V50.9554C34.8355 52.8876 39.5222 52.8876 43.5099 50.9554V58.5609L37.3845 56.2174ZM37.1789 51.2431C30.8067 51.2431 25.4623 46.8032 24.0235 40.8421L24.3934 40.6365L25.5854 41.2943C27.1065 46.2276 31.711 49.8454 37.1376 49.8454C42.6053 49.8454 47.2097 46.1865 48.7308 41.2121L49.9229 40.5956L50.2928 40.8012C48.9364 46.7619 43.5924 51.2431 37.1789 51.2431ZM22.8312 38.0877L21.9678 37.2655L23.1598 37.1012C23.4888 37.0602 23.7354 36.8546 23.8997 36.5667L24.4342 35.4979L24.9687 36.5667C25.092 36.8546 25.38 37.0599 25.7086 37.1012L26.9007 37.2655L26.0372 38.0877C25.7906 38.2933 25.7083 38.6222 25.7493 38.9512L25.9549 40.1432L24.8457 39.5677C24.5578 39.4034 24.2291 39.4034 23.9413 39.5677L22.8724 40.1432L23.0781 38.9512C23.1601 38.6222 23.0369 38.2933 22.8312 38.0877ZM37.1789 24.1511C43.3455 24.1511 48.5666 28.3445 50.1699 34.0177C50.0876 34.0177 50.0056 33.9767 49.9233 33.9767C49.5534 33.9767 49.2245 34.1823 49.0598 34.5112L48.8955 34.7992C47.6621 29.537 42.8522 25.5492 37.1789 25.5492C31.4645 25.5492 26.6957 29.537 25.4212 34.8814L25.2569 34.5937C25.0926 34.2648 24.7637 34.0592 24.3934 34.0592C24.3111 34.0592 24.2291 34.0592 24.1468 34.1002C25.7091 28.3861 30.9713 24.1511 37.1789 24.1511ZM46.1822 36.731C46.0589 37.101 46.1822 37.4709 46.4288 37.7178L47.4976 38.7455L47.251 40.2252C47.21 40.5542 47.3333 40.9241 47.5799 41.1297C46.1409 45.4873 42.0298 48.6529 37.1789 48.6529C32.3689 48.6529 28.2578 45.5286 26.819 41.1708C27.0656 40.9652 27.1889 40.5952 27.1479 40.2663L26.9013 38.7863L27.9701 37.7586C28.34 37.3886 28.3813 36.7718 27.9701 36.4019C27.8057 36.2376 27.6411 36.1553 27.4355 36.114L26.4078 35.9497C27.2299 30.6875 31.7522 26.6586 37.2199 26.6586C42.6467 26.6586 47.1687 30.6464 48.0321 35.8675L47.0043 36.0318C46.5931 36.1141 46.3055 36.4021 46.1822 36.731Z" fill="black" />
        </g>
    </g>
    <defs>
        <clipPath id="clip0_1_2">
            <rect width="74" height="83" fill="white" transform="translate(0.600006)" />
        </clipPath>

        <style>

      #hexa {
        stroke-dasharray: 242.70816040039062;
        stroke-dashoffset: 242.70816040039062;
        fill: transparent;
        animation: hexaIn 4s ease-in-out infinite;
      }

      @keyframes hexaIn {
        0% {
          stroke-dashoffset: 242.70816040039062;
        }

        25% {
          stroke-dashoffset: 0;
          fill: #fffcfc;
        }

        25%,
        100% {
          stroke-dashoffset: 0;
          fill: #fffcfc;
        }
      }

      #center_1,
      #center_2 {
        transform-box: fill-box;
        transform-origin: center;
        transform: scale(0);
        opacity: 0;
        animation: centerIn1 4s ease-in-out infinite;
      }

      @keyframes centerIn1 {
        0%,
        25% {
          transform: scale(0.5);
          opacity: 0;
        }
        50% {
          transform: scale(1);
          opacity: 1;
        }

        50%,
        100% {
          transform: scale(1);
          opacity: 1;
        }
      }
        </style>
    </defs>
</svg>