<svg width="100%" min-height="0" viewBox="0 0 74 83" fill="none"
    xmlns="http://www.w3.org/2000/svg">
    <g id="firstmover" clip-path="url(#clip0_1_25)">
        <path id="hexa" d="M1.51342 21.62L1 21.906V22.4937V60.019V60.5996L1.50422 60.8874L36.5042 80.8684L37 81.1515L37.4958 80.8684L72.4958 60.8874L73 60.5996V60.019V22.4937V21.906L72.4866 21.62L37.4866 2.12635L37 1.85535L36.5134 2.12635L1.51342 21.62Z" fill="#FFFCFC" stroke="#CF0A2C" stroke-width="2" />

        <g id="center_1">
            <path id="Vector_2" d="M36.9713 45.4171C31.7689 45.4171 27.5361 41.1849 27.5361 35.982C27.5361 30.7796 31.7683 26.5469 36.9713 26.5469C42.1737 26.5469 46.4064 30.7791 46.4064 35.982C46.4064 41.1844 42.1739 45.4171 36.9713 45.4171ZM36.9713 27.6874C32.3972 27.6874 28.6766 31.4085 28.6766 35.982C28.6766 40.556 32.3977 44.2766 36.9713 44.2766C41.545 44.2766 45.2659 40.5555 45.2659 35.982C45.2661 31.408 41.5448 27.6874 36.9713 27.6874Z" fill="black" />
            <path id="Vector_3" d="M36.4014 44.8477H37.5413V48.1403H36.4014V44.8477Z" fill="black" />
            <path id="Vector_4" d="M39.5797 59.6008H34.3623V47.5703H39.5797V59.6008ZM35.502 58.4611H38.44V48.7096H35.502V58.4611Z" fill="black" />
            <path id="Vector_5" d="M34.9321 49.5967H39.0099V50.7366H34.9321V49.5967Z" fill="black" />
            <path id="Vector_6" d="M34.9321 56.4351H39.0099V57.5748H34.9321V56.4351Z" fill="black" />
            <path id="Vector_7" d="M43.2182 47.364L42.6696 46.3652C42.9869 46.1911 43.3007 45.9991 43.602 45.7949L44.241 46.7387C43.9104 46.9621 43.5665 47.1727 43.2182 47.364ZM30.5897 47.2904C30.2443 47.0951 29.9027 46.8807 29.5746 46.6532L30.2246 45.7167C30.5238 45.9246 30.8353 46.1201 31.1504 46.2983L30.5897 47.2904ZM45.2019 46.0218L44.4791 45.1408C44.7599 44.9103 45.0333 44.6641 45.292 44.4091L46.0924 45.2205C45.809 45.4998 45.5092 45.7696 45.2019 46.0218ZM28.6231 45.9251C28.3187 45.6692 28.0223 45.3956 27.742 45.1124L28.5526 44.311C28.8084 44.5699 29.0788 44.8193 29.3563 45.0524L28.6231 45.9251ZM46.9057 44.3399L46.0344 43.6054C46.268 43.3278 46.4922 43.0363 46.6997 42.7379L47.6351 43.3889C47.4072 43.7162 47.1618 44.036 46.9057 44.3399ZM26.9394 44.2222C26.6867 43.9145 26.4454 43.5918 26.2223 43.263L27.1651 42.6229C27.3691 42.9237 27.5894 43.218 27.82 43.4988L26.9394 44.2222ZM48.2737 42.3747L47.2821 41.8128C47.4613 41.497 47.6275 41.1689 47.7761 40.8378L48.8154 41.3053C48.6523 41.6683 48.47 42.0283 48.2737 42.3747ZM25.5957 42.241C25.4037 41.8925 25.2257 41.5307 25.0662 41.1661L26.1106 40.7102C26.2559 41.0431 26.4185 41.373 26.5939 41.6911L25.5957 42.241ZM49.256 40.1904L48.1774 39.8212C48.2945 39.4783 48.3974 39.1254 48.4827 38.7721L49.591 39.0392C49.4973 39.4267 49.3844 39.814 49.256 40.1904ZM24.6382 40.0458C24.5136 39.6677 24.4051 39.2792 24.316 38.8908L25.4268 38.636C25.508 38.9899 25.6068 39.344 25.7204 39.6884L24.6382 40.0458ZM49.8175 37.8622L48.6895 37.6983C48.7416 37.3401 48.7776 36.974 48.7975 36.6097L48.8 36.561L49.9382 36.6215L49.9354 36.6705C49.9145 37.069 49.8746 37.4701 49.8175 37.8622ZM24.1029 37.7113C24.0505 37.3174 24.0158 36.9158 24 36.5175L25.1389 36.4721C25.1535 36.8356 25.1849 37.2017 25.2329 37.5612L24.1029 37.7113ZM48.8031 35.4695C48.7878 35.1059 48.7556 34.7396 48.7071 34.3804L49.8363 34.2274C49.8897 34.6214 49.9249 35.0232 49.9417 35.4213L48.8031 35.4695ZM25.146 35.3543L24.0063 35.3227L24.0078 35.2898C24.0285 34.9035 24.067 34.5111 24.1219 34.1276L25.2499 34.2895C25.2001 34.6395 25.1649 34.9977 25.146 35.3543ZM48.5103 33.3052C48.4288 32.9516 48.3293 32.5978 48.2147 32.2531L49.2964 31.8941C49.422 32.272 49.531 32.6606 49.6209 33.0486L48.5103 33.3052ZM25.4545 33.2149L24.346 32.9504C24.4389 32.5623 24.5507 32.1745 24.6786 31.7982L25.7578 32.1653C25.6411 32.5082 25.5393 32.8612 25.4545 33.2149ZM47.8227 31.2329C47.6769 30.901 47.5138 30.5714 47.3374 30.2536L48.3349 29.7009C48.5279 30.0496 48.7069 30.4109 48.8664 30.775L47.8227 31.2329ZM26.1571 31.1482L25.1167 30.6825C25.2788 30.3197 25.4609 29.9595 25.6564 29.612L26.6496 30.1714C26.4711 30.4885 26.3057 30.8171 26.1571 31.1482ZM46.7639 29.3222C46.5602 29.0232 46.3396 28.7286 46.1075 28.4475L46.9868 27.7221C47.2411 28.0303 47.4831 28.3528 47.7063 28.6808L46.7639 29.3222ZM27.2296 29.2453L26.2929 28.5963C26.5201 28.2683 26.765 27.9479 27.0208 27.6436L27.8935 28.3768C27.6606 28.6538 27.4374 28.9461 27.2296 29.2453ZM45.3737 27.6367C45.1184 27.3793 44.8473 27.1304 44.5685 26.8966L45.3005 26.0229C45.6063 26.279 45.903 26.5519 46.1828 26.8337L45.3737 27.6367ZM28.6348 27.5718L27.8327 26.762C28.1168 26.4806 28.4158 26.2105 28.7222 25.9585L29.4459 26.8391C29.1669 27.0686 28.894 27.3152 28.6348 27.5718ZM43.6986 26.234C43.3997 26.0275 43.0877 25.8324 42.7716 25.6545L43.3307 24.6611C43.6774 24.8561 44.0192 25.0698 44.3468 25.2965L43.6986 26.234ZM30.3211 26.1829L29.6803 25.2401C30.0109 25.0154 30.3545 24.8045 30.7015 24.6128L31.2524 25.6106C30.9356 25.7854 30.6228 25.9777 30.3211 26.1829ZM41.7947 25.1632C41.4631 25.0151 41.1209 24.8814 40.7771 24.7649L41.1424 23.6855C41.5195 23.8131 41.8948 23.9599 42.2589 24.1223L41.7947 25.1632ZM32.2328 25.1262L31.7763 24.0818C32.1419 23.922 32.5185 23.7777 32.8956 23.6531L33.2535 24.7351C32.9096 24.849 32.5662 24.9804 32.2328 25.1262ZM39.7268 24.4627C39.3737 24.3787 39.0124 24.3103 38.653 24.2592L38.8133 23.1307C39.2075 23.1866 39.6037 23.2617 39.991 23.3541L39.7268 24.4627ZM34.3059 24.4405L34.0496 23.3299C34.4361 23.2406 34.8331 23.1686 35.2288 23.1155L35.3807 24.2447C35.0197 24.2934 34.6582 24.3593 34.3059 24.4405ZM37.5639 24.1548C37.196 24.1364 36.8319 24.1351 36.4697 24.1499L36.4234 23.011C36.8199 22.9949 37.2198 22.9962 37.6213 23.0166L37.5639 24.1548Z" fill="black" />
        </g>
        <g id="center_2">
            <path id="Vector_8" d="M36.9713 43.138C33.0259 43.138 29.8159 39.9281 29.8159 35.9826C29.8159 32.0371 33.0259 28.8271 36.9713 28.8271C40.9166 28.8271 44.1268 32.0371 44.1268 35.9826C44.1268 39.9281 40.9171 43.138 36.9713 43.138ZM36.9713 29.967C33.6544 29.967 30.9558 32.6656 30.9558 35.9825C30.9558 39.2994 33.6544 41.9978 36.9713 41.9978C40.2883 41.9978 42.9866 39.2992 42.9866 35.9825C42.9866 32.6656 40.2883 29.967 36.9713 29.967Z" fill="#CF0A2C" />
            <path id="Vector_9" d="M36.4014 31.5498H37.5413V37.8819H36.4014V31.5498Z" fill="#CF0A2C" />
            <path id="Vector_10" d="M36.4014 39.1484H37.5413V40.4148H36.4014V39.1484Z" fill="#CF0A2C" />
        </g>
    </g>
    <defs>
        <clipPath id="clip0_1_25">
            <rect width="74" height="83" fill="white" />
        </clipPath>

        <style>

      #hexa {
        stroke-dasharray: 242.70816040039062;
        stroke-dashoffset: 242.70816040039062;
        fill: transparent;
        animation: hexaIn 4s ease-in-out infinite;
      }

      @keyframes hexaIn {
        0% {
          stroke-dashoffset: 242.70816040039062;
        }

        25% {
          stroke-dashoffset: 0;
          fill: #fffcfc;
        }

        25%,
        100% {
          stroke-dashoffset: 0;
          fill: #fffcfc;
        }
      }

      #center_1,
      #center_2 {
        transform-box: fill-box;
        transform-origin: center;
        transform: scale(0);
        opacity: 0;
        animation: centerIn1 4s ease-in-out infinite;
      }

      @keyframes centerIn1 {
        0%,
        25% {
          transform: scale(0.5);
          opacity: 0;
        }
        50% {
          transform: scale(1);
          opacity: 1;
        }

        50%,
        100% {
          transform: scale(1);
          opacity: 1;
        }
      }
        </style>
    </defs>
</svg>