<svg width="100%" min-height="0" viewBox="0 0 75 83" fill="none"
    xmlns="http://www.w3.org/2000/svg">
    <g id="participation" clip-path="url(#clip0_1_44)">
        <path id="hexa" d="M1.91344 21.62L1.40002 21.906V22.4937V60.019V60.5996L1.90424 60.8874L36.9042 80.8684L37.4 81.1515L37.8958 80.8684L72.8958 60.8874L73.4 60.5996V60.019V22.4937V21.906L72.8866 21.62L37.8866 2.12635L37.4 1.85535L36.9134 2.12635L1.91344 21.62Z" fill="#FFFCFC" stroke="#CF0A2C" stroke-width="2" />

        <g id="center_1">
            <path id="Vector_2" d="M41.6401 58.2126H32.7804C32.69 58.2126 32.6032 58.1767 32.5396 58.1128L31.1764 56.7496C31.1124 56.6856 31.0765 56.5992 31.0765 56.5087V51.7377C31.0765 51.5492 31.2291 51.397 31.4172 51.397H43.0036C43.1915 51.397 43.3444 51.5492 43.3444 51.7377V56.5087C43.3444 56.5992 43.3084 56.6856 43.2445 56.7496L41.8813 58.1128C41.8174 58.1764 41.7309 58.2126 41.6405 58.2126H41.6401ZM32.9207 57.5309H41.4983L42.6617 56.3674V52.0784H31.7574V56.3674L32.9207 57.5309Z" fill="black" />
            <path id="Vector_3" d="M30.7357 54.1227C30.5555 54.1227 30.4051 53.9818 30.3956 53.8C30.3856 53.6115 30.5302 53.452 30.7178 53.4413L43.6667 52.7598C43.8585 52.7559 44.0154 52.895 44.0248 53.0826C44.0355 53.2711 43.8905 53.4306 43.7026 53.4413L30.7537 54.1227H30.7357Z" fill="black" />
            <path id="Vector_4" d="M30.7357 56.1675C30.5555 56.1675 30.4051 56.0266 30.3956 55.8448C30.3856 55.6563 30.5302 55.4967 30.7178 55.4861L43.6667 54.8046C43.8585 54.7952 44.0154 54.9398 44.0248 55.1274C44.0355 55.3159 43.8905 55.4754 43.7026 55.4861L30.7537 56.1675H30.7357Z" fill="black" />
            <path id="Vector_5" d="M43.0032 52.0779H31.4168C31.2284 52.0779 31.0761 51.9254 31.0761 51.7372V49.6246C27.6582 47.4887 25.6236 43.8339 25.6236 39.81C25.6236 33.4209 30.8213 28.2236 37.21 28.2236C43.5982 28.2236 48.7964 33.4213 48.7964 39.81C48.7964 43.8351 46.7612 47.4896 43.3439 49.6246V51.7372C43.3439 51.9254 43.1908 52.0779 43.0032 52.0779ZM31.7575 51.3965H42.6618L42.6621 49.434C42.6621 49.3144 42.7248 49.2038 42.8272 49.1423C46.1379 47.1461 48.1146 43.6579 48.1146 39.8095C48.1146 33.7964 43.2224 28.9043 37.2103 28.9043C31.1972 28.9043 26.3052 33.7966 26.3052 39.8095C26.3052 43.6566 28.2819 47.1455 31.5926 49.1423C31.6952 49.2035 31.7577 49.3141 31.7577 49.434L31.758 51.3965H31.7575Z" fill="black" />
            <path id="Vector_6" d="M37.2102 59.5755C34.6437 59.5755 33.8703 58.0871 33.8383 58.0241C33.7543 57.8557 33.8225 57.6508 33.9909 57.5668C34.1592 57.4843 34.3623 57.55 34.4467 57.7166C34.4732 57.7678 35.0922 58.894 37.2102 58.894C39.3304 58.894 39.9482 57.7644 39.9735 57.716C40.0599 57.5509 40.2649 57.4843 40.4314 57.5695C40.598 57.6548 40.6656 57.8569 40.5818 58.0241C40.5495 58.0871 39.7764 59.5755 37.2102 59.5755Z" fill="black" />
        </g>
        <g id="center_2">
            <path id="Vector_7" d="M35.5063 46.6257C34.9825 46.6263 34.4594 46.4266 34.0605 46.028C33.2631 45.2311 33.2637 43.9334 34.0611 43.1359C34.1942 43.0029 34.4098 43.0029 34.5431 43.1359C34.6762 43.269 34.6762 43.4846 34.5431 43.6176C34.0112 44.1496 34.0112 45.014 34.5425 45.5459C35.073 46.0764 35.9383 46.077 36.4715 45.5459C36.7239 45.2929 36.8661 44.9583 36.871 44.6035C36.8737 44.4151 37.018 44.2555 37.2166 44.2674C37.405 44.2701 37.5555 44.4245 37.5527 44.613C37.5454 45.1461 37.3323 45.6479 36.9538 46.0274C36.5546 46.4266 36.0302 46.6257 35.5063 46.6257Z" fill="#CF0A2C" />
            <path id="Vector_8" d="M33.4632 37.872C32.3356 37.872 31.4186 36.9552 31.4186 35.8279C31.4186 34.7001 32.3357 33.7827 33.4632 33.7827C33.965 33.7827 34.4476 33.9651 34.8209 34.2967C34.9613 34.4215 34.9747 34.6371 34.8495 34.7778C34.7244 34.9185 34.5094 34.9306 34.3681 34.8064C34.12 34.5857 33.7984 34.4642 33.4629 34.4642C32.7114 34.4642 32.0997 35.0759 32.0997 35.828C32.0997 36.5791 32.7114 37.1905 33.4629 37.1905C33.6514 37.1905 33.8036 37.3428 33.8036 37.5313C33.8039 37.7197 33.6514 37.872 33.4632 37.872Z" fill="#CF0A2C" />
            <path id="Vector_9" d="M31.3491 41.7695C31.3037 41.7695 31.2572 41.7601 31.2133 41.7415C30.7167 41.5244 30.3961 41.0348 30.3961 40.4922C30.3961 39.7401 31.0078 39.1284 31.7593 39.1284C31.9478 39.1284 32.1 39.281 32.1 39.4691C32.1 39.6576 31.9475 39.8099 31.7593 39.8099C31.3832 39.8099 31.0775 40.1159 31.0775 40.4922C31.0775 40.7632 31.2374 41.008 31.4849 41.1158C31.6579 41.1916 31.7364 41.392 31.6612 41.5643C31.6061 41.6931 31.4804 41.7696 31.3491 41.7696V41.7695Z" fill="#CF0A2C" />
            <path id="Vector_10" d="M31.7592 39.8098C30.8195 39.8098 30.0553 39.0461 30.0553 38.107C30.0559 37.0477 31.065 36.2204 32.1166 36.4391C32.3003 36.4774 32.419 36.658 32.3803 36.8422C32.3417 37.0267 32.1641 37.1455 31.9769 37.1062C31.3438 36.9759 30.737 37.4713 30.737 38.1074C30.737 38.6704 31.1956 39.1284 31.7595 39.1284C31.948 39.1284 32.1002 39.2809 32.1002 39.4691C32.0999 39.6576 31.9474 39.8098 31.7592 39.8098Z" fill="#CF0A2C" />
            <path id="Vector_11" d="M35.8483 35.7209C34.9086 35.7209 34.1444 34.9572 34.1444 34.0181C34.1444 33.0779 34.9084 32.313 35.8483 32.313C36.788 32.313 37.5522 33.0782 37.5522 34.0181C37.5522 34.2066 37.3996 34.3589 37.2115 34.3589C37.023 34.3589 36.8707 34.2063 36.8707 34.0181C36.8707 33.4536 36.4122 32.9944 35.8483 32.9944C35.2847 32.9944 34.8261 33.4536 34.8261 34.0181C34.8261 34.5811 35.2847 35.0391 35.8483 35.0391C36.0367 35.0391 36.189 35.1917 36.189 35.3798C36.189 35.5686 36.0367 35.7209 35.8483 35.7209Z" fill="#CF0A2C" />
            <path id="Vector_12" d="M33.4678 45.2641C32.7504 45.2641 32.0495 44.9794 31.5343 44.4648C30.4713 43.4018 30.4719 41.672 31.5355 40.6084C32.0507 40.0926 32.7349 39.8091 33.4617 39.8091H33.4623C34.1891 39.8091 34.8742 40.0926 35.3903 40.6093C35.5234 40.7424 35.5234 40.958 35.3903 41.0913C35.2572 41.2244 35.0417 41.2244 34.9083 41.0913C34.521 40.704 34.007 40.4909 33.4619 40.4909H33.4613C32.9169 40.4909 32.4039 40.704 32.0172 41.0907C31.2191 41.8888 31.2185 43.1868 32.0159 43.9833C32.4772 44.444 33.1374 44.6608 33.7792 44.5591C33.9622 44.5338 34.1401 44.6578 34.1687 44.8435C34.1973 45.0292 34.07 45.2037 33.8843 45.233C33.7461 45.2534 33.6069 45.264 33.4677 45.264L33.4678 45.2641Z" fill="#CF0A2C" />
            <path id="Vector_13" d="M38.9166 46.6257C38.3919 46.6257 37.8685 46.426 37.4699 46.0274C37.0914 45.6474 36.8783 45.1456 36.871 44.6125C36.8682 44.424 37.0187 44.2696 37.2071 44.2669C37.3981 44.2602 37.5494 44.4146 37.5527 44.603C37.5573 44.9578 37.6998 45.2927 37.9516 45.5461C38.4854 46.0771 39.3507 46.0771 39.8806 45.5455C40.4116 45.0135 40.4116 44.1491 39.8806 43.6171C39.7475 43.4841 39.7475 43.2685 39.8806 43.1354C40.0136 43.0024 40.2292 43.0024 40.3626 43.1354C41.16 43.9329 41.16 45.2306 40.3626 46.0275C39.9643 46.4261 39.4396 46.6258 38.9165 46.6258L38.9166 46.6257Z" fill="#CF0A2C" />
            <path id="Vector_14" d="M40.9603 37.872C40.7727 37.872 40.6196 37.7194 40.6196 37.5313C40.6196 37.3428 40.7727 37.1905 40.9603 37.1905C41.7124 37.1905 42.3235 36.5791 42.3235 35.828C42.3235 35.0759 41.7123 34.4642 40.9603 34.4642C40.6247 34.4642 40.3041 34.5857 40.0551 34.8064C39.9141 34.9307 39.6982 34.9185 39.5746 34.7778C39.4494 34.6371 39.4628 34.4215 39.6026 34.2967C39.9768 33.9651 40.4585 33.7827 40.9603 33.7827C42.0878 33.7827 43.0049 34.7002 43.0049 35.828C43.0049 36.9552 42.0878 37.872 40.9603 37.872Z" fill="#CF0A2C" />
            <path id="Vector_15" d="M43.0734 41.7693C42.9431 41.7693 42.8164 41.6928 42.7619 41.5643C42.6861 41.392 42.7647 41.1916 42.9376 41.1158C43.1852 41.008 43.345 40.7629 43.345 40.4922C43.345 40.1162 43.0402 39.8099 42.6636 39.8099C42.476 39.8099 42.3229 39.6573 42.3229 39.4691C42.3229 39.2807 42.476 39.1284 42.6636 39.1284C43.4157 39.1284 44.0268 39.7401 44.0268 40.4922C44.0268 41.0348 43.7058 41.5244 43.2095 41.7415C43.1654 41.7598 43.1188 41.7692 43.0734 41.7692V41.7693Z" fill="#CF0A2C" />
            <path id="Vector_16" d="M42.6636 39.8098C42.476 39.8098 42.3229 39.6573 42.3229 39.4691C42.3229 39.2806 42.476 39.1284 42.6636 39.1284C43.2281 39.1284 43.6857 38.6704 43.6857 38.1074C43.6857 37.471 43.0801 36.9738 42.4465 37.1062C42.2602 37.1455 42.0805 37.0267 42.0431 36.8422C42.0044 36.658 42.1228 36.4774 42.3067 36.4391C43.3609 36.2204 44.3676 37.0477 44.3676 38.107C44.3676 39.0461 43.6033 39.8098 42.6637 39.8098H42.6636Z" fill="#CF0A2C" />
            <path id="Vector_17" d="M38.5742 35.7206C38.3864 35.7206 38.2335 35.568 38.2335 35.3798C38.2335 35.1914 38.3867 35.0391 38.5742 35.0391C39.1388 35.0391 39.5964 34.5812 39.5964 34.0181C39.5964 33.4536 39.1384 32.9944 38.5742 32.9944C38.0112 32.9944 37.5524 33.4536 37.5524 34.0181C37.5524 34.2066 37.3998 34.3589 37.2117 34.3589C37.0232 34.3589 36.8709 34.2063 36.8709 34.0181C36.8709 33.0779 37.6349 32.313 38.5745 32.313C39.5142 32.313 40.2784 33.0782 40.2784 34.0181C40.2778 34.9569 39.5139 35.7205 38.5742 35.7205V35.7206Z" fill="#CF0A2C" />
            <path id="Vector_18" d="M40.955 45.264C40.8167 45.264 40.6782 45.2534 40.5396 45.232C40.3533 45.2028 40.2269 45.0283 40.2546 44.8426C40.2839 44.6563 40.4611 44.5299 40.6447 44.5582C41.2878 44.6602 41.9467 44.4431 42.407 43.9818C43.2045 43.1856 43.2045 41.8879 42.4058 41.0897C42.0197 40.703 41.5061 40.4899 40.9617 40.4899C40.416 40.4899 39.902 40.703 39.5148 41.0903C39.3817 41.2234 39.1661 41.2234 39.0328 41.0903C38.8997 40.9573 38.8997 40.7417 39.0328 40.6083C39.5495 40.0919 40.2349 39.8081 40.9617 39.8081C41.6885 39.8081 42.3727 40.0916 42.8879 40.6074C43.9515 41.671 43.9527 43.4008 42.8891 44.4638C42.3742 44.9793 41.6739 45.264 40.955 45.264Z" fill="#CF0A2C" />
            <path id="Vector_19" d="M37.2117 44.9491C37.0232 44.9491 36.8709 44.7965 36.8709 44.6084V34.0189C36.8709 33.8305 37.0235 33.6782 37.2117 33.6782C37.4002 33.6782 37.5524 33.8308 37.5524 34.0189V44.6084C37.5524 44.7965 37.4002 44.9491 37.2117 44.9491Z" fill="#CF0A2C" />
            <path id="Vector_20" d="M38.2321 42.5367C37.3494 42.5367 36.9237 41.7021 36.9067 41.6662C36.8229 41.4972 36.8914 41.2935 37.0598 41.2098C37.227 41.126 37.4313 41.1936 37.5156 41.3608C37.5196 41.3681 37.776 41.8553 38.2321 41.8553C38.4197 41.8553 38.5728 42.0075 38.5728 42.196C38.5728 42.3845 38.4197 42.5367 38.2321 42.5367Z" fill="#CF0A2C" />
            <path id="Vector_21" d="M36.1875 42.5365C35.999 42.5365 35.8468 42.3839 35.8468 42.1957C35.8468 42.0073 35.9993 41.855 36.1875 41.855C36.6439 41.855 36.9009 41.3651 36.9037 41.3605C36.9895 41.1949 37.1945 41.127 37.361 41.2107C37.5282 41.296 37.5967 41.4981 37.5126 41.6659C37.4953 41.7018 37.0699 42.5365 36.1875 42.5365Z" fill="#CF0A2C" />
            <path id="Vector_22" d="M38.9141 38.4475C37.2976 38.4475 36.8709 37.333 36.8709 36.7436C36.8709 36.5551 37.0235 36.4028 37.2117 36.4028C37.3986 36.4028 37.5512 36.5539 37.5524 36.7405C37.5542 36.8456 37.609 37.766 38.9138 37.766C39.1013 37.766 39.2545 37.9186 39.2545 38.1067C39.2548 38.2949 39.102 38.4475 38.9141 38.4475Z" fill="#CF0A2C" />
            <path id="Vector_23" d="M35.5054 38.4473C35.3169 38.4473 35.1646 38.2948 35.1646 38.1066C35.1646 37.9181 35.3172 37.7659 35.5054 37.7659C36.8101 37.7659 36.8647 36.8454 36.8664 36.7404C36.8698 36.5531 37.0147 36.3896 37.2105 36.4042C37.3975 36.4058 37.5479 36.5565 37.5479 36.7434C37.5482 37.3326 37.1216 38.4473 35.5054 38.4473Z" fill="#CF0A2C" />
        </g>
        <g id="stroke">
            <path id="stroke_1" d="M24.4128 47.1844L18.7253 50.4976" stroke="black" stroke-linecap="round" />
            <path id="stroke_2" d="M15.8576 39.8081L22.4396 39.8336" stroke="black" stroke-linecap="round" />
            <path id="stroke_3" d="M18.7253 29.1442L24.4128 32.4573" stroke="black" stroke-linecap="round" />
            <path id="stroke_4" d="M26.5241 21.3246L29.8372 27.0121" stroke="black" stroke-linecap="round" />
            <path id="stroke_5" d="M37.2244 18.4569L37.1989 25.039" stroke="black" stroke-linecap="round" />
            <path id="stroke_6" d="M47.8973 21.3246L44.5842 27.0121" stroke="black" stroke-linecap="round" />
            <path id="stroke_7" d="M55.6962 29.1442L50.0087 32.4573" stroke="black" stroke-linecap="round" />
            <path id="stroke_8" d="M51.9809 39.8081L58.563 39.8336" stroke="black" stroke-linecap="round" />
            <path id="stroke_9" d="M50.0088 47.1844L55.6963 50.4976" stroke="black" stroke-linecap="round" />
        </g>
    </g>
    <defs>
        <clipPath id="clip0_1_44">
            <rect width="74" height="83" fill="white" transform="translate(0.400024)" />
        </clipPath>

        <style>

      #hexa {
        stroke-dasharray: 242.70816040039062;
        stroke-dashoffset: 242.70816040039062;
        fill: transparent;
        animation: hexaIn 4s ease-in-out infinite;
      }

      @keyframes hexaIn {
        0% {
          stroke-dashoffset: 242.70816040039062;
        }

        25% {
          stroke-dashoffset: 0;
          fill: #fffcfc;
        }

        25%,
        100% {
          stroke-dashoffset: 0;
          fill: #fffcfc;
        }
      }

      #center_1,
      #center_2,
      #center_3 {
        transform-box: fill-box;
        transform-origin: center;

        opacity: 0;
        animation: centerIn1 4s ease-in-out infinite;
      }

      @keyframes centerIn1 {
        0%,
        25% {
          transform: scale(0.5);
          opacity: 0;
        }
        50% {
          transform: scale(1);
          opacity: 1;
        }

        50%,
        100% {
          transform: scale(1);
          opacity: 1;
        }
      }

      #stroke_1 {
        /* transform-box: fill-box;
        transform-origin: center;
        transform: rotate(180deg); */
        stroke-dasharray: 6.582170009613037;
        stroke-dashoffset: 6.582170009613037;
        animation: strokesIn1 4s ease-in-out infinite;
      }

      @keyframes strokesIn1 {
        0%,
        50% {
          stroke-dashoffset: 6.582170009613037;
        }

        60% {
          stroke-dashoffset: 0;
        }

        60%,
        100% {
          stroke-dashoffset: 0;
        }
      }

      #stroke_2 {
        transform-box: fill-box;
        transform-origin: center;
        transform: rotate(180deg);
        stroke-dasharray: 6.582049369812012;
        stroke-dashoffset: 6.582049369812012;
        animation: strokesIn2 4s ease-in-out infinite;
      }

      @keyframes strokesIn2 {
        0%,
        50% {
          stroke-dashoffset: 6.582049369812012;
        }

        60% {
          stroke-dashoffset: 0;
        }

        60%,
        100% {
          stroke-dashoffset: 0;
        }
      }

      #stroke_3 {
        transform-box: fill-box;
        transform-origin: center;
        transform: rotate(180deg);
        stroke-dasharray: 6.582118034362793;
        stroke-dashoffset: 6.582118034362793;
        animation: strokesIn3 4s ease-in-out infinite;
      }

      @keyframes strokesIn3 {
        0%,
        50% {
          stroke-dashoffset: 6.582118034362793;
        }

        60% {
          stroke-dashoffset: 0;
        }

        60%,
        100% {
          stroke-dashoffset: 0;
        }
      }

      #stroke_4 {
        transform-box: fill-box;
        transform-origin: center;
        transform: rotate(180deg);
        stroke-dasharray: 6.582118988037109;
        stroke-dashoffset: 6.582118988037109;
        animation: strokesIn4 4s ease-in-out infinite;
      }

      @keyframes strokesIn4 {
        0%,
        50% {
          stroke-dashoffset: 6.582118988037109;
        }

        60% {
          stroke-dashoffset: 0;
        }

        60%,
        100% {
          stroke-dashoffset: 0;
        }
      }

      #stroke_5 {
        transform-box: fill-box;
        transform-origin: center;
        transform: rotate(180deg);
        stroke-dasharray: 6.582149505615234;
        stroke-dashoffset: 6.582149505615234;
        animation: strokesIn5 4s ease-in-out infinite;
      }

      @keyframes strokesIn5 {
        0%,
        50% {
          stroke-dashoffset: 6.582149505615234;
        }

        60% {
          stroke-dashoffset: 0;
        }

        60%,
        100% {
          stroke-dashoffset: 0;
        }
      }
      #stroke_6 {
        transform-box: fill-box;
        transform-origin: center;
        transform: rotate(180deg);
        stroke-dasharray: 6.582118034362793;
        stroke-dashoffset: 6.582118034362793;
        animation: strokesIn6 4s ease-in-out infinite;
      }

      @keyframes strokesIn6 {
        0%,
        50% {
          stroke-dashoffset: 6.582118034362793;
        }

        60% {
          stroke-dashoffset: 0;
        }

        60%,
        100% {
          stroke-dashoffset: 0;
        }
      }

      #stroke_7 {
        transform-box: fill-box;
        transform-origin: center;
        transform: rotate(180deg);
        stroke-dasharray: 6.582118034362793;
        stroke-dashoffset: 6.582118034362793;
        animation: strokesIn7 4s ease-in-out infinite;
      }

      @keyframes strokesIn7 {
        0%,
        50% {
          stroke-dashoffset: 6.582118034362793;
        }

        60% {
          stroke-dashoffset: 0;
        }

        60%,
        100% {
          stroke-dashoffset: 0;
        }
      }

      #stroke_8 {
        stroke-dasharray: 6.582149505615234;
        stroke-dashoffset: 6.582149505615234;
        animation: strokesIn8 4s ease-in-out infinite;
      }

      @keyframes strokesIn8 {
        0%,
        50% {
          stroke-dashoffset: 6.582149505615234;
        }

        60% {
          stroke-dashoffset: 0;
        }

        60%,
        100% {
          stroke-dashoffset: 0;
        }
      }

      #stroke_9 {
        stroke-dasharray: 6.582170009613037;
        stroke-dashoffset: 6.582170009613037;
        animation: strokesIn9 4s ease-in-out infinite;
      }

      @keyframes strokesIn9 {
        0%,
        50% {
          stroke-dashoffset: 6.582170009613037;
        }

        60% {
          stroke-dashoffset: 0;
        }

        60%,
        100% {
          stroke-dashoffset: 0;
        }
      }
        </style>
    </defs>
</svg>