<svg width="100%" min-height="0" viewBox="0 0 75 83" fill="none"
    xmlns="http://www.w3.org/2000/svg">
    <g id="Staking" clip-path="url(#clip0_1_36)">
        <g id="hexa">
            <path id="Vector" d="M2.31342 21.62L1.8 21.906V22.4937V60.019V60.5996L2.30422 60.8874L37.3042 80.8684L37.8 81.1515L38.2958 80.8684L73.2958 60.8874L73.8 60.5996V60.019V22.4937V21.906L73.2866 21.62L38.2866 2.12635L37.8 1.85535L37.3134 2.12635L2.31342 21.62Z" fill="#FFFCFC" stroke="#CF0A2C" stroke-width="2" />
        </g>
        <g id="center_1">
            <path id="Vector_2" d="M52.8 32.1431V55.6183C52.8 56.3816 52.1916 57.0002 51.4407 57.0002H24.1593C23.4084 57.0002 22.8 56.3816 22.8 55.6183V32.1431H52.8Z" stroke="black" stroke-width="1.5" stroke-miterlimit="10" stroke-linecap="round" stroke-linejoin="round" />
            <path id="Vector_3" d="M52.8 28.2596V32.1429H22.8V28.2596C22.8 27.5638 23.4084 27 24.1593 27H51.4406C52.1914 27 52.7999 27.5638 52.7999 28.2596H52.8Z" stroke="black" stroke-width="1.5" stroke-miterlimit="10" stroke-linecap="round" stroke-linejoin="round" />
            <path id="Vector_4" d="M33.9428 29.5713H51.0857" stroke="black" stroke-width="1.5" stroke-miterlimit="10" stroke-linecap="round" stroke-linejoin="round" />
        </g>
        <g id="center_2">
            <path id="Vector_5" d="M45.6201 43.2856H35.9799C35.3284 43.2856 34.8 43.7612 34.8 44.348V51.6519C34.8 52.2384 35.3281 52.7142 35.9799 52.7142H45.6201C46.2716 52.7142 46.8 52.2387 46.8 51.6519V44.348C46.8 43.7612 46.2716 43.2856 45.6201 43.2856Z" stroke="#CF0A2C" stroke-width="1.5" stroke-miterlimit="10" stroke-linecap="round" stroke-linejoin="round" />
            <path id="Vector_6" d="M36.5143 43.2854V40.2992C36.5143 38.1612 34.9794 36.4282 33.0857 36.4282C31.1921 36.4282 29.6572 38.1612 29.6572 40.2992V43.2854" stroke="#CF0A2C" stroke-width="1.5" stroke-miterlimit="10" stroke-linecap="round" stroke-linejoin="round" />
            <path id="Vector_7" d="M40.8 46.7144V49.2858" stroke="#CF0A2C" stroke-width="1.06" stroke-miterlimit="10" stroke-linecap="round" stroke-linejoin="round" />
        </g>
    </g>
    <defs>
        <clipPath id="clip0_1_36">
            <rect width="74" height="83" fill="white" transform="translate(0.800003)" />
        </clipPath>

        <style>
      #hexa {
        stroke-dasharray: 242.70816040039062;
        stroke-dashoffset: 242.70816040039062;
        fill: transparent;
        animation: hexaIn 4s ease-in-out infinite;
      }

      @keyframes hexaIn {
        0% {
          stroke-dashoffset: 242.70816040039062;
        }

        25% {
          stroke-dashoffset: 0;
          fill: #fffcfc;
        }

        25%,
        100% {
          stroke-dashoffset: 0;
          fill: #fffcfc;
        }
      }

      #center_1 {
        transform-box: fill-box;
        transform-origin: center;
        opacity: 0;
        animation: centerIn1 4s ease-in-out infinite;
      }

      @keyframes centerIn1 {
        0%,
        25% {
          transform: scale(0.5);
          opacity: 0;
        }
        50% {
          transform: scale(1);
          opacity: 1;
        }

        50%,
        100% {
          transform: scale(1);
          opacity: 1;
        }
      }

      #center_2 {
        transform-box: fill-box;
        transform-origin: center;
        opacity: 0;
        animation: centerIn2 4s ease-in-out infinite;
      }

      @keyframes centerIn2 {
        0%,
        25% {
          transform: scale(0.5);
          opacity: 0;
        }
        70% {
          transform: scale(1);
          opacity: 1;
        }

        50%,
        100% {
          transform: scale(1);
          opacity: 1;
        }
      }
        </style>
    </defs>
</svg>